<?xml version="1.0" encoding="UTF-8" standalone="no" ?>
<!DOCTYPE svg PUBLIC "-//W3C//DTD SVG 1.1//EN" "http://www.w3.org/Graphics/SVG/1.1/DTD/svg11.dtd">
<svg xmlns="http://www.w3.org/2000/svg" xmlns:xlink="http://www.w3.org/1999/xlink" version="1.1" width="640" height="640" viewBox="0 0 640 640" xml:space="preserve">
<desc>Created with Fabric.js 4.6.0</desc>
<defs>
</defs>
<g transform="matrix(2.71 0 0 2.71 291.5 350.32)" id="EGjqxxP1WEipT8BsSohb3"  >
<linearGradient id="SVGID_0" gradientUnits="userSpaceOnUse" gradientTransform="matrix(1 0 0 1 0 0)"  x1="3.2310009002685964" y1="96.76900100708005" x2="96.76900291442871" y2="3.2309989929199174">
<stop offset="5%" style="stop-color:rgb(119,147,224);stop-opacity: 1"/>
<stop offset="95%" style="stop-color:rgb(40,76,175);stop-opacity: 1"/>
</linearGradient>
<path style="stroke: none; stroke-width: 1; stroke-dasharray: none; stroke-linecap: butt; stroke-dashoffset: 0; stroke-linejoin: miter; stroke-miterlimit: 4; fill: url(#SVGID_0); fill-rule: nonzero; opacity: 1;" vector-effect="non-scaling-stroke"  transform=" translate(-49.98, -61.18)" d="M 28.757 57.483 L 30.274 56.608 L 43.45 48.974 L 43.476000000000006 48.988 L 68.32600000000001 34.647 L 68.32000000000001 22.36 L 7.493 57.449 L 82.193 100 L 92.475 94.07 L 73.43799999999999 83.13799999999999 z" stroke-linecap="round" />
</g>
<g transform="matrix(2.71 0 0 2.71 274.52 279.8)" id="CoIYlvWQHcdlvd5VAD-kE"  >
<linearGradient id="SVGID_1" gradientUnits="userSpaceOnUse" gradientTransform="matrix(1 0 0 1 0 0)"  x1="3.2310009002685964" y1="96.76900100708005" x2="96.76900291442871" y2="3.2309989929199174">
<stop offset="5%" style="stop-color:rgb(119,147,224);stop-opacity: 1"/>
<stop offset="95%" style="stop-color:rgb(40,76,175);stop-opacity: 1"/>
</linearGradient>
<path style="stroke: none; stroke-width: 1; stroke-dasharray: none; stroke-linecap: butt; stroke-dashoffset: 0; stroke-linejoin: miter; stroke-miterlimit: 4; fill: url(#SVGID_1); fill-rule: nonzero; opacity: 1;" vector-effect="non-scaling-stroke"  transform=" translate(-43.73, -35.18)" d="M 70.426 35.858 L 70.43900000000001 64.348 L 80.99300000000001 70.359 L 80.96 0 L 6.462 42.973 L 6.468 55.614999999999995 L 70.418 18.727999999999994 z" stroke-linecap="round" />
</g>
<g transform="matrix(2.71 0 0 2.71 327.48 309.51)" id="CO0o1LAgP4k8Vgv2lOQmv"  >
<linearGradient id="SVGID_2" gradientUnits="userSpaceOnUse" gradientTransform="matrix(1 0 0 1 0 0)"  x1="3.2310009002685964" y1="96.76900100708005" x2="96.76900291442871" y2="3.2309989929199174">
<stop offset="5%" style="stop-color:rgb(119,147,224);stop-opacity: 1"/>
<stop offset="95%" style="stop-color:rgb(40,76,175);stop-opacity: 1"/>
</linearGradient>
<path style="stroke: none; stroke-width: 1; stroke-dasharray: none; stroke-linecap: butt; stroke-dashoffset: 0; stroke-linejoin: miter; stroke-miterlimit: 4; fill: url(#SVGID_2); fill-rule: nonzero; opacity: 1;" vector-effect="non-scaling-stroke"  transform=" translate(-63.25, -46.14)" d="M 83.093 73.972 L 70.441 66.764 L 70.44 66.771 L 68.167 65.468 L 43.483000000000004 51.406000000000006 L 32.962 57.479000000000006 L 93.538 92.26 L 93.497 6.007000000000005 L 83.059 0.014 z" stroke-linecap="round" />
</g>
</svg>